<svg width="217" height="71" viewBox="0 0 217 71" fill="none" xmlns="http://www.w3.org/2000/svg">
<g clip-path="url(#clip0_631_4824)">
<mask id="mask0_631_4824" style="mask-type:luminance" maskUnits="userSpaceOnUse" x="0" y="0" width="217" height="71">
<path d="M217 0H0V71H217V0Z" fill="white"/>
</mask>
<g mask="url(#mask0_631_4824)">
<mask id="mask1_631_4824" style="mask-type:luminance" maskUnits="userSpaceOnUse" x="80" y="19" width="137" height="32">
<path d="M216.28 19.9077H80.5576V50.716H216.28V19.9077Z" fill="white"/>
</mask>
<g mask="url(#mask1_631_4824)">
<path d="M103.56 44.2499C102.444 46.2571 100.847 47.8377 98.7784 48.9872C96.7049 50.1412 94.294 50.716 91.5369 50.716H80.5576V24.407H91.5369C94.2895 24.407 96.7049 24.9638 98.7784 26.0775C100.852 27.1911 102.444 28.7402 103.56 30.7205C104.675 32.7007 105.233 34.9549 105.233 37.4829C105.233 40.011 104.675 42.2382 103.56 44.2454V44.2499ZM95.2206 41.8341C96.3136 40.8193 96.8578 39.3689 96.8578 37.4874C96.8578 35.606 96.3136 34.1556 95.2206 33.1408C94.1276 32.1259 92.6523 31.6185 90.7902 31.6185H88.8157V43.3608H90.7902C92.6523 43.3608 94.1276 42.8534 95.2206 41.8386V41.8341Z" fill="#00A650"/>
<path d="M108.537 21.0797C109.405 20.2984 110.561 19.9077 112.001 19.9077C113.44 19.9077 114.555 20.2984 115.423 21.0797C116.292 21.861 116.728 22.8444 116.728 24.0343C116.728 25.2243 116.292 26.1673 115.423 26.9351C114.555 27.703 113.413 28.0891 112.001 28.0891C110.588 28.0891 109.405 27.7074 108.537 26.9351C107.669 26.1673 107.233 25.2018 107.233 24.0343C107.233 22.8669 107.665 21.861 108.537 21.0797ZM116.094 29.755V50.716H107.831V29.755H116.094Z" fill="#00A650"/>
<path d="M133.094 43.6932V50.7161H129.968C124.211 50.7161 121.332 47.8557 121.332 42.1305V36.6299H118.728V29.7551H121.332V24.699H129.595V29.7551H133.017V36.6299H129.595V42.2787C129.595 42.7727 129.712 43.1319 129.95 43.3564C130.184 43.5809 130.575 43.6932 131.124 43.6932H133.098H133.094Z" fill="#00A650"/>
<path d="M152.721 31.5467C154.597 33.0824 155.779 35.2153 156.274 37.9364H147.526C147.202 36.8453 146.572 36.3019 145.628 36.3019C144.958 36.3019 144.431 36.6118 144.045 37.2314C143.658 37.8511 143.469 38.7671 143.469 39.9795C143.469 41.1919 143.662 42.1124 144.045 42.7276C144.427 43.3473 144.958 43.6571 145.628 43.6571C146.572 43.6571 147.202 43.1138 147.526 42.0226H156.274C155.779 44.7483 154.592 46.8767 152.721 48.4124C150.845 49.9481 148.547 50.7159 145.817 50.7159C143.734 50.7159 141.877 50.2849 140.253 49.4137C138.629 48.5471 137.361 47.3033 136.457 45.6778C135.553 44.0568 135.098 42.1529 135.098 39.975C135.098 37.7972 135.553 35.8933 136.457 34.2723C137.361 32.6513 138.629 31.4075 140.253 30.5363C141.877 29.6697 143.734 29.2341 145.817 29.2341C148.547 29.2341 150.85 30.002 152.721 31.5377V31.5467Z" fill="#00A650"/>
<path d="M178.618 32.0226C179.972 33.6346 180.646 35.8124 180.646 38.565V50.7159H172.42V39.6068C172.42 38.6144 172.155 37.8286 171.619 37.2448C171.084 36.6611 170.373 36.3692 169.478 36.3692C168.583 36.3692 167.841 36.6611 167.319 37.2448C166.798 37.8286 166.537 38.6144 166.537 39.6068V50.7159H158.274V23.217H166.537V32.9521C167.18 31.9597 168.043 31.1559 169.123 30.5363C170.202 29.9166 171.489 29.6068 172.978 29.6068C175.384 29.6068 177.264 30.4105 178.618 32.0226Z" fill="#00A650"/>
<path d="M199.909 24.407V50.716H191.646V24.407H199.909Z" fill="#00A650"/>
<path d="M216.275 43.4012V50.4241H213.149C207.392 50.4241 204.513 47.5638 204.513 41.8386V36.3379H201.909V29.4632H204.513V24.407H212.776V29.4632H216.199V36.3379H212.776V41.9867C212.776 42.4807 212.893 42.8399 213.131 43.0644C213.365 43.2889 213.756 43.4012 214.305 43.4012H216.28H216.275Z" fill="#00A650"/>
</g>
<path fill-rule="evenodd" clip-rule="evenodd" d="M0 35.4442C0 15.992 15.7919 0.221924 35.2766 0.221924C54.3609 0.221924 69.901 15.3409 70.5352 34.2363C70.5487 34.6359 70.5577 35.04 70.5577 35.4442C70.5577 36.2345 70.5307 37.0113 70.4812 37.7881C70.3733 39.4271 70.1484 41.0391 69.8245 42.6107C69.6536 43.4415 69.4557 44.2587 69.2263 45.0625C68.5741 47.3526 67.7016 49.5528 66.6176 51.6319C66.1948 52.4536 65.736 53.2618 65.2457 54.0432C64.4991 55.2376 63.6895 56.3781 62.8124 57.4693C62.2367 58.1833 61.634 58.8793 61.0043 59.5483C54.5679 66.3916 45.4237 70.6664 35.2766 70.6664C15.7919 70.6664 0 54.8963 0 35.4442ZM13.3677 55.1433C13.7995 54.7706 14.2627 54.829 14.7575 54.9817C15.1866 55.1133 15.6144 55.2487 16.0419 55.3841C17.2189 55.7567 18.3939 56.1287 19.5882 56.4186C25.6243 57.8869 31.6784 58.0486 37.6785 56.2659C43.3458 54.582 48.0191 51.3355 51.9547 46.9709C52.238 46.6566 52.5169 46.3332 52.7598 45.8932C52.6613 45.9152 52.5623 45.9358 52.4635 45.9564L52.4634 45.9564C52.2599 45.9987 52.057 46.0408 51.8602 46.0953C48.4643 46.9799 45.028 47.4244 41.5197 47.0427C39.1223 46.7823 36.8689 46.1087 34.9168 44.6224C34.5525 44.344 34.2871 44.0162 34.3771 43.5403C34.4671 43.0598 34.7864 42.75 35.2452 42.6152C38.1521 41.7385 40.8693 40.4178 43.5838 39.0985C44.0529 38.8704 44.522 38.6425 44.992 38.4168L45.2084 38.3124L45.3326 38.2523L45.3326 38.2523C46.8954 37.4965 48.4555 36.7421 50.1915 36.4365C52.7958 35.9875 55.391 36.0863 57.9773 36.4814C62.3582 37.155 66.4242 38.52 70.1709 40.5991C70.1125 40.9942 70.0495 41.3939 69.973 41.789C69.8291 42.5658 69.6627 43.3247 69.4738 44.0791C69.0735 45.6732 68.5607 47.2178 67.958 48.7042C67.6387 49.49 67.2968 50.2578 66.928 51.0077C65.871 53.1406 64.6161 55.1478 63.1768 56.9978C62.9609 57.2538 62.736 57.5052 62.5066 57.7567C61.4676 58.8972 60.3656 59.9659 59.2097 60.9628C54.7208 62.4536 50.3265 64.2318 45.995 66.1581C42.6261 67.6579 39.1538 67.9632 35.5375 67.3885C29.8568 66.4859 24.6123 64.4069 19.7276 61.4343C17.9977 60.3805 16.3394 59.2164 14.6799 58.0513L14.6798 58.0513L14.6793 58.0509C14.3024 57.7863 13.9255 57.5217 13.5476 57.2583C12.6885 56.661 12.6525 55.7405 13.3677 55.1298V55.1433ZM24.5485 5.27619C29.391 6.16349 32.5961 10.8019 31.7073 15.6364C30.8186 20.4709 26.1725 23.6708 21.3299 22.7835C16.4873 21.8962 13.2821 17.2577 14.1709 12.4232C15.0597 7.58869 19.7059 4.38889 24.5485 5.27619ZM37.0352 27.8779L36.0862 26.6565L36.0875 26.6552C35.822 26.3227 35.6426 25.9299 35.5446 25.493C34.9734 23.5313 36.1689 20.5656 38.6649 18.1861C41.7136 15.2796 45.548 14.3483 47.2293 16.1059C47.2425 16.1196 47.2554 16.1335 47.2682 16.1475L47.2768 16.1401L48.3113 17.2357C49.4043 18.2236 49.7326 19.9749 48.7746 22.1706C47.2543 25.6462 43.4132 28.6592 40.1747 28.9511C38.7534 29.0813 37.7144 28.6951 37.0397 27.8823L37.0352 27.8779ZM31.8953 33.4672C34.5993 36.9942 35.1379 41.1169 33.0983 42.6754C32.646 43.0211 32.1049 43.2116 31.507 43.2603C29.3883 43.5624 26.4715 41.9746 24.2945 39.1351C21.5904 35.608 21.0518 31.4853 23.0915 29.9268C23.5439 29.5811 24.0851 29.3906 24.683 29.342C26.8017 29.0399 29.7184 30.6277 31.8953 33.4672ZM41.9052 54.0797C42.232 53.9324 42.5586 53.7852 42.8871 53.6435L42.8916 53.648L42.8557 53.5716C42.6156 53.6444 42.3764 53.7213 42.1372 53.7981L42.1372 53.7981L42.1371 53.7981C41.6102 53.9673 41.0835 54.1365 40.5483 54.2632C36.9545 55.1163 33.3247 55.0939 29.6815 54.6448C26.4475 54.2452 23.3215 53.392 20.218 52.4221C19.2664 52.1222 18.2683 51.9677 17.2727 51.8136H17.2727L17.2727 51.8136C17.0306 51.7761 16.7888 51.7387 16.5478 51.6992C16.2599 51.6543 15.9181 51.7396 15.6392 51.8608C15.2434 52.027 15.059 52.3862 15.0725 52.8217C15.086 53.4055 15.4773 53.6974 15.9585 53.8905C18.5133 54.9232 21.1356 55.736 23.8568 56.2209C29.2767 57.1909 34.5976 56.872 39.7881 54.9726C40.508 54.7096 41.2071 54.3944 41.9052 54.0797ZM42.7835 52.934L42.7641 52.9427C42.6166 52.9748 42.4691 53.009 42.3213 53.0433C41.9979 53.1183 41.6731 53.1936 41.3442 53.2483C37.3996 53.8905 33.5449 53.3651 29.7667 52.2335C28.6395 51.8936 27.536 51.4754 26.4315 51.0569C25.61 50.7456 24.7881 50.4341 23.9555 50.1545C23.1549 49.8851 22.3003 49.7504 21.4592 49.6381C21.0409 49.5797 20.7036 49.8581 20.6001 50.3027C20.4967 50.7517 20.7081 51.075 21.0949 51.2771C21.6211 51.5465 22.1519 51.8114 22.6916 52.0539C27.4548 54.2003 32.416 55.1118 37.629 54.4203C39.4076 54.1832 41.1149 53.6833 42.7641 52.9427L42.7835 52.9385V52.934ZM42.7735 52.4276C42.7754 52.4273 42.7773 52.427 42.7792 52.4267L42.7747 52.4312C42.7743 52.43 42.7739 52.4288 42.7735 52.4276ZM41.6185 52.6317C42.0032 52.5604 42.3879 52.489 42.7735 52.4276C42.7709 52.4198 42.7682 52.4121 42.7656 52.4046C42.7551 52.3744 42.7447 52.3458 42.7342 52.3144C42.507 52.3289 42.2798 52.3475 42.0526 52.3661C41.5737 52.4054 41.0947 52.4447 40.6157 52.4447C39.9095 52.4402 39.1989 52.3818 38.4972 52.2875C35.4162 51.8834 32.5691 50.7832 29.8164 49.3867C29.2476 49.0986 28.6243 48.9076 28.0117 48.7198C27.9655 48.7056 27.9193 48.6915 27.8733 48.6773C27.482 48.556 27.0997 48.6324 26.9423 49.0814C26.7938 49.517 27.0727 49.7505 27.4055 49.9525C31.0128 52.1348 34.8989 53.2754 39.1359 52.9925C39.9689 52.9375 40.7936 52.7846 41.6185 52.6317Z" fill="#00A650"/>
</g>
</g>
<defs>
<clipPath id="clip0_631_4824">
<rect width="217" height="71" fill="white"/>
</clipPath>
</defs>
</svg>
