<svg width="217" height="71" viewBox="0 0 217 71" fill="none" xmlns="http://www.w3.org/2000/svg">
<g clip-path="url(#clip0_622_5369)">
<mask id="mask0_622_5369" style="mask-type:luminance" maskUnits="userSpaceOnUse" x="80" y="19" width="137" height="32">
<path d="M216.28 19.9077H80.5576V50.716H216.28V19.9077Z" fill="white"/>
</mask>
<g mask="url(#mask0_622_5369)">
<path d="M103.56 44.2499C102.444 46.2571 100.847 47.8377 98.7784 48.9872C96.7049 50.1412 94.294 50.716 91.5369 50.716H80.5576V24.407H91.5369C94.2895 24.407 96.7049 24.9638 98.7784 26.0775C100.852 27.1911 102.444 28.7402 103.56 30.7205C104.675 32.7007 105.233 34.9549 105.233 37.4829C105.233 40.011 104.675 42.2382 103.56 44.2454V44.2499ZM95.2206 41.8341C96.3136 40.8193 96.8578 39.3689 96.8578 37.4874C96.8578 35.606 96.3136 34.1556 95.2206 33.1408C94.1276 32.1259 92.6523 31.6185 90.7902 31.6185H88.8157V43.3608H90.7902C92.6523 43.3608 94.1276 42.8534 95.2206 41.8386V41.8341Z" fill="#00A650"/>
<path d="M108.537 21.0797C109.405 20.2984 110.561 19.9077 112.001 19.9077C113.44 19.9077 114.555 20.2984 115.423 21.0797C116.292 21.861 116.728 22.8444 116.728 24.0343C116.728 25.2243 116.292 26.1673 115.423 26.9351C114.555 27.703 113.413 28.0891 112.001 28.0891C110.588 28.0891 109.405 27.7074 108.537 26.9351C107.669 26.1673 107.233 25.2018 107.233 24.0343C107.233 22.8669 107.665 21.861 108.537 21.0797ZM116.094 29.755V50.716H107.831V29.755H116.094Z" fill="#00A650"/>
<path d="M133.094 43.6932V50.7161H129.968C124.211 50.7161 121.332 47.8557 121.332 42.1305V36.6299H118.728V29.7551H121.332V24.699H129.595V29.7551H133.017V36.6299H129.595V42.2787C129.595 42.7727 129.712 43.1319 129.95 43.3564C130.184 43.5809 130.575 43.6932 131.124 43.6932H133.098H133.094Z" fill="#00A650"/>
<path d="M152.721 31.5467C154.597 33.0824 155.779 35.2153 156.274 37.9364H147.526C147.202 36.8453 146.572 36.3019 145.628 36.3019C144.958 36.3019 144.431 36.6118 144.045 37.2314C143.658 37.8511 143.469 38.7671 143.469 39.9795C143.469 41.1919 143.662 42.1124 144.045 42.7276C144.427 43.3473 144.958 43.6571 145.628 43.6571C146.572 43.6571 147.202 43.1138 147.526 42.0226H156.274C155.779 44.7483 154.592 46.8767 152.721 48.4124C150.845 49.9481 148.547 50.7159 145.817 50.7159C143.734 50.7159 141.877 50.2849 140.253 49.4137C138.629 48.5471 137.361 47.3033 136.457 45.6778C135.553 44.0568 135.098 42.1529 135.098 39.975C135.098 37.7972 135.553 35.8933 136.457 34.2723C137.361 32.6513 138.629 31.4075 140.253 30.5363C141.877 29.6697 143.734 29.2341 145.817 29.2341C148.547 29.2341 150.85 30.002 152.721 31.5377V31.5467Z" fill="#00A650"/>
<path d="M178.618 32.0226C179.972 33.6346 180.646 35.8124 180.646 38.565V50.7159H172.42V39.6068C172.42 38.6144 172.155 37.8286 171.619 37.2448C171.084 36.6611 170.373 36.3692 169.478 36.3692C168.583 36.3692 167.841 36.6611 167.319 37.2448C166.798 37.8286 166.537 38.6144 166.537 39.6068V50.7159H158.274V23.217H166.537V32.9521C167.18 31.9597 168.043 31.1559 169.123 30.5363C170.202 29.9166 171.489 29.6068 172.978 29.6068C175.384 29.6068 177.264 30.4105 178.618 32.0226Z" fill="#00A650"/>
<path d="M199.909 24.407V50.716H191.646V24.407H199.909Z" fill="#00A650"/>
<path d="M216.275 43.4012V50.4241H213.149C207.392 50.4241 204.513 47.5638 204.513 41.8386V36.3379H201.909V29.4632H204.513V24.407H212.776V29.4632H216.199V36.3379H212.776V41.9867C212.776 42.4807 212.893 42.8399 213.131 43.0644C213.365 43.2889 213.756 43.4012 214.305 43.4012H216.28H216.275Z" fill="#00A650"/>
</g>
<path d="M0 35.4442C0 15.992 15.7919 0.221924 35.2766 0.221924C54.3609 0.221924 69.901 15.3409 70.5352 34.2363C70.5487 34.6359 70.5577 35.04 70.5577 35.4442C70.5577 36.2345 70.5307 37.0113 70.4812 37.7881C70.3733 39.4271 70.1484 41.0391 69.8245 42.6107C69.6536 43.4415 69.4557 44.2587 69.2263 45.0625C68.5741 47.3526 67.7016 49.5528 66.6176 51.6319C66.1948 52.4536 65.736 53.2618 65.2457 54.0432C64.4991 55.2376 63.6895 56.3781 62.8124 57.4693C62.2367 58.1833 61.634 58.8793 61.0043 59.5483C54.5679 66.3916 45.4237 70.6664 35.2766 70.6664C15.7919 70.6664 0 54.8963 0 35.4442Z" fill="#00A650"/>
<path d="M13.3677 55.1433C13.7995 54.7706 14.2627 54.829 14.7575 54.9817C16.3677 55.4756 17.96 56.0234 19.5882 56.4186C25.6243 57.8869 31.6784 58.0486 37.6785 56.2659C43.3458 54.582 48.0191 51.3355 51.9547 46.9709C52.238 46.6566 52.5169 46.3332 52.7598 45.8932C52.4584 45.9606 52.1526 46.0144 51.8602 46.0953C48.4643 46.9799 45.028 47.4244 41.5197 47.0427C39.1223 46.7823 36.8689 46.1087 34.9168 44.6224C34.5525 44.344 34.2871 44.0162 34.3771 43.5403C34.4671 43.0598 34.7864 42.75 35.2452 42.6152C38.6545 41.587 41.803 39.948 44.992 38.4168C46.6697 37.6085 48.3294 36.7643 50.1915 36.4365C52.7958 35.9875 55.391 36.0863 57.9773 36.4814C62.3582 37.155 66.4242 38.52 70.1709 40.5991C70.1125 40.9942 70.0495 41.3939 69.973 41.789C69.8291 42.5658 69.6627 43.3247 69.4738 44.0791C69.0735 45.6732 68.5607 47.2178 67.958 48.7042C67.6387 49.49 67.2968 50.2578 66.928 51.0077C65.871 53.1406 64.6161 55.1478 63.1768 56.9978C62.9609 57.2538 62.736 57.5052 62.5066 57.7567C61.4676 58.8972 60.3656 59.9659 59.2097 60.9628C54.7208 62.4536 50.3265 64.2318 45.995 66.1581C42.6261 67.6579 39.1538 67.9632 35.5375 67.3885C29.8568 66.4859 24.6123 64.4069 19.7276 61.4343C17.6046 60.1411 15.5896 58.6817 13.5476 57.2583C12.6885 56.661 12.6525 55.7405 13.3677 55.1298V55.1433Z" fill="white"/>
<path d="M42.8871 53.6435C41.8571 54.088 40.8451 54.5865 39.7881 54.9726C34.5976 56.872 29.2767 57.1909 23.8568 56.2209C21.1356 55.736 18.5133 54.9232 15.9585 53.8905C15.4773 53.6974 15.086 53.4055 15.0725 52.8217C15.059 52.3862 15.2434 52.027 15.6392 51.8608C15.9181 51.7396 16.2599 51.6543 16.5478 51.6992C17.7802 51.9012 19.0351 52.0494 20.218 52.4221C23.3215 53.392 26.4475 54.2452 29.6815 54.6448C33.3247 55.0939 36.9545 55.1163 40.5483 54.2632C41.3264 54.079 42.0865 53.8051 42.8557 53.5716L42.8916 53.648L42.8871 53.6435Z" fill="white"/>
<path d="M42.7835 52.934C41.1283 53.6794 39.4146 54.1823 37.629 54.4203C32.416 55.1118 27.4548 54.2003 22.6916 52.0539C22.1519 51.8114 21.6211 51.5465 21.0949 51.2771C20.7081 51.075 20.4967 50.7517 20.6001 50.3027C20.7036 49.8581 21.0409 49.5797 21.4592 49.6381C22.3003 49.7504 23.1549 49.8851 23.9555 50.1545C25.9076 50.8101 27.8012 51.6408 29.7667 52.2335C33.5449 53.3651 37.3996 53.8905 41.3442 53.2483C41.8299 53.1675 42.3067 53.0418 42.7835 52.9385V52.934Z" fill="white"/>
<path d="M42.7792 52.4267C41.5647 52.6198 40.3593 52.9117 39.1359 52.9925C34.8989 53.2754 31.0128 52.1348 27.4055 49.9525C27.0727 49.7505 26.7938 49.517 26.9423 49.0814C27.0997 48.6324 27.482 48.556 27.8733 48.6773C28.53 48.8793 29.2047 49.0769 29.8164 49.3867C32.5691 50.7832 35.4162 51.8834 38.4972 52.2875C39.1989 52.3818 39.9095 52.4402 40.6157 52.4447C41.3219 52.4447 42.028 52.3593 42.7342 52.3144C42.7477 52.3549 42.7612 52.3908 42.7747 52.4312L42.7792 52.4267Z" fill="white"/>
<path d="M31.7074 15.6364C32.5962 10.8019 29.391 6.16349 24.5485 5.27619C19.7059 4.38889 15.0597 7.58869 14.1709 12.4232C13.2821 17.2577 16.4873 21.8962 21.3299 22.7835C26.1725 23.6708 30.8187 20.4709 31.7074 15.6364Z" fill="#FCDE16"/>
<g style="mix-blend-mode:multiply">
<path d="M14.1368 15.4441L16.3453 15.0894C16.6106 16.7328 17.4877 18.282 18.927 19.3597C21.8731 21.5689 26.0606 20.9762 28.2735 18.0306C29.407 16.5218 29.8028 14.6942 29.5239 12.9699L31.7324 12.6152C32.515 17.4693 29.2091 22.0359 24.3514 22.8173C19.4893 23.5986 14.9149 20.2982 14.1323 15.4486L14.1368 15.4441Z" fill="#EEE5D1"/>
</g>
<g style="mix-blend-mode:multiply">
<path d="M23.8294 20.6331C27.4827 20.1413 30.0449 16.7859 29.5523 13.1386C29.0596 9.4914 25.6987 6.9335 22.0453 7.4253C18.392 7.9171 15.8298 11.2725 16.3224 14.9197C16.8151 18.5669 20.1761 21.1249 23.8294 20.6331Z" fill="#DCC99E"/>
</g>
<g style="mix-blend-mode:multiply">
<path d="M27.0231 9.4721C24.077 7.2628 19.8895 7.8555 17.6765 10.8012C16.7095 12.0899 16.2777 13.6122 16.3452 15.1075C16.0618 13.3787 16.4576 11.5421 17.5956 10.0289C19.8085 7.0877 23.9915 6.4905 26.9421 8.6997C28.6018 9.9436 29.5149 11.8071 29.6048 13.7244C29.335 12.0855 28.4579 10.5453 27.0231 9.4721Z" fill="#DFCDA7"/>
</g>
<g style="mix-blend-mode:overlay">
<path d="M16.3677 15.2242C16.66 16.8183 17.5281 18.3091 18.927 19.3598C21.873 21.5691 26.0605 20.9763 28.2735 18.0307C29.326 16.6342 29.7398 14.9593 29.5733 13.3472C29.8927 15.1119 29.5059 16.9979 28.3454 18.5426C26.1325 21.4837 21.9495 22.081 18.9989 19.8717C17.4517 18.7132 16.5521 17.0069 16.3677 15.2242Z" fill="#FDE961"/>
</g>
<path d="M25.3679 15.8574C25.3679 15.4533 25.2734 15.13 25.08 14.883C24.8866 14.636 24.6527 14.4474 24.3694 14.3217C24.086 14.196 23.7352 14.0792 23.3034 13.9714V11.8924C23.8476 11.9688 24.3514 12.1978 24.8191 12.5794L25.2419 11.6814C25.017 11.4793 24.7427 11.3087 24.4188 11.174C24.095 11.0392 23.7442 10.9494 23.3753 10.9045V9.85376H22.3993V10.918C21.9945 10.9674 21.6392 11.0886 21.3288 11.2772C21.0185 11.4658 20.7756 11.6993 20.6047 11.9867C20.4337 12.2696 20.3438 12.5839 20.3438 12.9297C20.3438 13.3428 20.4427 13.6796 20.6406 13.94C20.8385 14.2005 21.0859 14.3935 21.3783 14.5238C21.6707 14.654 22.035 14.7752 22.4623 14.883V16.8722C21.8146 16.8273 21.2164 16.5893 20.6586 16.1538L20.2358 17.0518C20.5102 17.2808 20.8296 17.4649 21.1984 17.5952C21.5672 17.7299 21.963 17.8107 22.3903 17.8421V18.8839H23.3663V17.8197C23.9735 17.7299 24.4593 17.5098 24.8191 17.1551C25.179 16.8004 25.3589 16.3648 25.3589 15.8484L25.3679 15.8574ZM21.5807 12.8623C21.5807 12.6154 21.6572 12.4043 21.8146 12.2382C21.972 12.072 22.1879 11.9598 22.4623 11.9014V13.7469C22.1789 13.6526 21.963 13.5359 21.8101 13.3967C21.6572 13.2575 21.5807 13.0779 21.5807 12.8578V12.8623ZM23.3079 16.8228V15.1075C23.5777 15.1928 23.7801 15.2916 23.9196 15.4128C24.059 15.5341 24.131 15.6957 24.131 15.8933C24.131 16.1403 24.059 16.3468 23.9196 16.4995C23.7801 16.6567 23.5732 16.7644 23.3079 16.8183V16.8228Z" fill="#DF9800"/>
<path d="M21.3964 12.6376C21.3964 12.3907 21.4728 12.1796 21.6303 12.0135C21.7877 11.8473 22.0036 11.7352 22.2779 11.6768V13.5223C21.9946 13.428 21.7787 13.3113 21.6258 13.1721C21.4728 13.0329 21.3964 12.8533 21.3964 12.6333V12.6376ZM23.1235 16.5982V14.8829C23.3934 14.9682 23.5958 15.0669 23.7352 15.1882C23.8747 15.3094 23.9466 15.4711 23.9466 15.6686C23.9466 15.9156 23.8747 16.1223 23.7352 16.2749C23.5958 16.4321 23.3889 16.5399 23.1235 16.5937V16.5982ZM25.1836 15.6327C25.1836 15.2286 25.0891 14.9053 24.8957 14.6583C24.7023 14.4113 24.4684 14.2227 24.185 14.097C23.9017 13.9713 23.5508 13.8546 23.119 13.7469V11.6678C23.6633 11.7442 24.167 11.9732 24.6348 12.3549L25.0576 11.4568C24.8327 11.2547 24.5584 11.0841 24.2345 10.9494C23.9107 10.8147 23.5598 10.7249 23.191 10.68V9.62915H22.215V10.6933C21.8102 10.7427 21.4548 10.8641 21.1445 11.0527C20.8341 11.2412 20.5913 11.4747 20.4203 11.7621C20.2494 12.045 20.1595 12.3592 20.1595 12.705C20.1595 13.1181 20.2584 13.455 20.4563 13.7154C20.6542 13.9759 20.9016 14.169 21.194 14.2992C21.4863 14.4294 21.8507 14.5505 22.2779 14.6583V16.6476C21.6303 16.6027 21.032 16.3646 20.4743 15.9291L20.0515 16.8272C20.3259 17.0562 20.6452 17.2403 21.0141 17.3706C21.3829 17.5053 21.7787 17.5861 22.206 17.6175V18.6593H23.182V17.5951C23.7892 17.5053 24.275 17.2853 24.6348 16.9305C24.9946 16.5758 25.1746 16.1402 25.1746 15.6238L25.1836 15.6327Z" fill="#FFDE56"/>
<path d="M25.5838 4.28121C25.7008 4.28121 25.7997 4.18691 25.7997 4.06561V1.34451C25.7997 1.22771 25.7053 1.12891 25.5838 1.12891C25.4624 1.12891 25.3679 1.22321 25.3679 1.34451V4.06561C25.3679 4.18241 25.4624 4.28121 25.5838 4.28121Z" fill="#B3D7DD"/>
<path d="M22.7098 3.7065C22.8267 3.7065 22.9257 3.6122 22.9257 3.4909V-9.11796C22.9257 -9.23471 22.8312 -9.3335 22.7098 -9.3335C22.5884 -9.3335 22.4939 -9.2392 22.4939 -9.11796V3.4954C22.4939 3.6122 22.5884 3.711 22.7098 3.711V3.7065Z" fill="#B3D7DD"/>
<path d="M20.2718 3.99386C20.3887 3.99386 20.4877 3.89956 20.4877 3.77836V-0.0923309C20.4877 -0.209071 20.3932 -0.307861 20.2718 -0.307861C20.1504 -0.307861 20.0559 -0.213571 20.0559 -0.0923309V3.77836C20.0559 3.89506 20.1504 3.99386 20.2718 3.99386Z" fill="#B3D7DD"/>
<path d="M21.8957 30.6486L23.29 29.7954L23.6543 30.24C24.5989 30.24 25.6873 30.5498 26.8433 31.2099C30.3246 33.2036 33.0998 37.6087 33.0368 41.0348C33.0278 41.5377 32.9559 41.9867 32.8344 42.3909L33.0638 42.7232L31.7954 43.6796C30.6305 44.7079 28.7504 44.8561 26.5554 43.5988C23.0741 41.6051 20.3529 37.236 20.4159 33.8098C20.4429 32.3056 20.9646 31.2638 21.9002 30.6486H21.8957Z" fill="#FCDE16"/>
<g style="mix-blend-mode:multiply">
<path d="M21.8957 30.6486L23.29 29.7954L23.6543 30.24C24.5989 30.24 25.6873 30.5498 26.8433 31.2099C30.3246 33.2036 33.0998 37.6087 33.0368 41.0348C33.0278 41.5377 32.9559 41.9867 32.8344 42.3909L33.0638 42.7232L31.7954 43.6796C30.6305 44.7079 28.7504 44.8561 26.5554 43.5988C23.0741 41.6051 20.3529 37.236 20.4159 33.8098C20.4429 32.3056 20.9511 31.2818 21.9002 30.6486H21.8957Z" fill="#DCC99E"/>
</g>
<path d="M32.8838 42.6994C34.9235 41.1408 34.3849 37.0181 31.6808 33.4911C28.9767 29.964 25.1312 28.3683 23.0915 29.9268C21.0518 31.4853 21.5904 35.608 24.2945 39.1351C26.9986 42.6621 30.8441 44.2579 32.8838 42.6994Z" fill="#FCDE16"/>
<path d="M33.0983 42.6754C35.1379 41.1169 34.5993 36.9942 31.8953 33.4672C29.1912 29.9401 25.3456 28.3443 23.306 29.9029C21.2663 31.4614 21.8049 35.5841 24.5089 39.1111C27.213 42.6382 31.0586 44.234 33.0983 42.6754Z" fill="#FCDE16"/>
<g style="mix-blend-mode:multiply">
<path d="M27.8192 29.9929L27.9137 31.5735C26.7667 31.0077 25.6468 30.8819 24.8102 31.3265C23.0965 32.2335 23.2179 35.1928 25.089 37.9364C26.0471 39.3418 27.275 40.415 28.4759 41.0077L28.5704 42.5884C25.188 40.9224 22.2779 36.7509 22.071 33.2709C21.8641 29.7909 24.4368 28.327 27.8192 29.9929Z" fill="#EEE5D1"/>
</g>
<g style="mix-blend-mode:multiply">
<path d="M31.8709 41.0744C33.3996 39.9062 32.9964 36.8168 30.9702 34.174C28.9441 31.5311 26.0622 30.3357 24.5335 31.5038C23.0047 32.672 23.4079 35.7614 25.4341 38.4042C27.4602 41.047 30.3421 42.2425 31.8709 41.0744Z" fill="#DCC99E"/>
</g>
<path d="M27.3693 38.0126C27.6527 38.0799 27.8641 38.0665 28.008 37.9722C28.1519 37.8734 28.2419 37.7342 28.2824 37.5546C28.3229 37.3704 28.3453 37.1325 28.3543 36.8406L29.8116 37.1953C29.8476 37.577 29.7667 37.9048 29.5778 38.1742L30.2794 38.6322C30.3874 38.5065 30.4593 38.3359 30.4998 38.1203C30.5403 37.9048 30.5448 37.6713 30.5178 37.4064L31.2555 37.586L31.0935 36.8765L30.3469 36.6969C30.2434 36.396 30.104 36.1176 29.9196 35.8617C29.7352 35.6057 29.5328 35.3902 29.3034 35.2151C29.074 35.04 28.8401 34.9232 28.5972 34.8648C28.3049 34.793 28.0845 34.8065 27.936 34.9097C27.7876 35.0085 27.6887 35.1567 27.6482 35.3453C27.6032 35.5384 27.5807 35.7764 27.5762 36.0683L26.1774 35.727C26.1009 35.2645 26.1729 34.8693 26.3843 34.5415L25.6826 34.0835C25.5657 34.2452 25.4937 34.4472 25.4577 34.6897C25.4217 34.9322 25.4307 35.2061 25.4802 35.5114L24.7471 35.3318L24.909 36.0413L25.6556 36.2209C25.8176 36.6744 26.0514 37.0651 26.3618 37.3884C26.6677 37.7117 27.005 37.9183 27.3693 38.0036V38.0126ZM28.8491 35.7764C29.0245 35.8168 29.1819 35.9111 29.3259 36.0548C29.4698 36.1985 29.5823 36.3736 29.6677 36.5801L28.3723 36.2658C28.3948 36.0772 28.4398 35.9425 28.5118 35.8527C28.5837 35.7629 28.6962 35.7405 28.8536 35.7764H28.8491ZM26.3483 36.3511L27.5492 36.643C27.5357 36.8226 27.4953 36.9528 27.4368 37.0337C27.3738 37.1145 27.2749 37.137 27.1354 37.1055C26.96 37.0651 26.8071 36.9753 26.6721 36.8496C26.5372 36.7193 26.4293 36.5532 26.3483 36.3511Z" fill="#DF9800"/>
<path d="M28.9749 35.6868C29.1504 35.7272 29.3078 35.8215 29.4517 35.9652C29.5956 36.1089 29.7081 36.284 29.7935 36.4906L28.4982 36.1762C28.5207 35.9876 28.5656 35.8529 28.6376 35.7631C28.7096 35.6733 28.822 35.6509 28.9794 35.6868H28.9749ZM26.4741 36.2616L27.6751 36.5534C27.6616 36.733 27.6211 36.8633 27.5626 36.9441C27.4996 37.0249 27.4007 37.0474 27.2613 37.0159C27.0858 36.9755 26.9329 36.8857 26.798 36.76C26.663 36.6298 26.5551 36.4636 26.4741 36.2616ZM27.4907 37.923C27.774 37.9903 27.9854 37.9769 28.1293 37.8826C28.2733 37.7838 28.3632 37.6446 28.4037 37.465C28.4442 37.2809 28.4667 37.0429 28.4757 36.751L29.933 37.1057C29.969 37.4874 29.888 37.8152 29.6991 38.0846L30.4008 38.5427C30.5087 38.4169 30.5807 38.2463 30.6212 38.0308C30.6616 37.8152 30.6661 37.5817 30.6391 37.3168L31.3768 37.4964L31.2149 36.7869L30.4682 36.6073C30.3648 36.3065 30.2253 36.0281 30.0409 35.7721C29.8565 35.5162 29.6541 35.3006 29.4247 35.1255C29.1953 34.9504 28.9614 34.8336 28.7186 34.7753C28.4262 34.7034 28.2058 34.7169 28.0574 34.8202C27.909 34.9189 27.81 35.0671 27.7695 35.2557C27.7245 35.4488 27.7021 35.6868 27.6976 35.9787L26.2987 35.6374C26.2223 35.1749 26.2942 34.7797 26.5056 34.452L25.804 33.9939C25.687 34.1556 25.615 34.3577 25.5791 34.6001C25.5431 34.8426 25.5521 35.1165 25.6016 35.4219L24.8684 35.2423L25.0303 35.9517L25.777 36.1313C25.9389 36.5849 26.1728 36.9755 26.4831 37.2988C26.789 37.6221 27.1263 37.8287 27.4907 37.914V37.923Z" fill="#FFDE56"/>
<g style="mix-blend-mode:multiply">
<path d="M27.4864 31.3806C25.4309 30.6621 23.8657 31.5871 23.8252 33.738C23.7802 36.2346 25.7952 39.4363 28.332 40.8866C28.6064 41.0438 28.8718 41.1695 29.1326 41.2728C28.8043 41.1605 28.467 41.0034 28.1161 40.8058C25.5793 39.3554 23.5598 36.1538 23.6093 33.6572C23.6498 31.43 25.323 30.5184 27.4864 31.3806Z" fill="#DCC99E"/>
</g>
<g style="mix-blend-mode:multiply">
<path d="M32.4791 38.8345C32.5241 36.3378 30.5045 33.1407 27.9722 31.6858C27.5764 31.4568 27.1896 31.2862 26.8208 31.1694C27.2841 31.2817 27.7788 31.4793 28.2871 31.7711C30.8239 33.2215 32.8434 36.4231 32.7939 38.9198C32.7535 41.0482 31.2242 41.9777 29.2047 41.3041C31.0713 41.7891 32.4431 40.8506 32.4791 38.8345Z" fill="#DCC99E"/>
</g>
<path d="M26.2764 31.0751C24.7291 30.9314 23.6452 31.8699 23.6092 33.6616C23.5642 36.1582 25.5792 39.3598 28.116 40.8102C28.7322 41.1649 29.3259 41.3805 29.8702 41.4703C29.2585 41.4119 28.5748 41.1874 27.8551 40.7743C25.3184 39.3239 23.2988 36.1223 23.3483 33.6256C23.3843 31.7397 24.5897 30.7922 26.2764 31.0751Z" fill="#FCDE16"/>
<path d="M31.3904 43.5269L30.2075 44.4294C30.0366 44.4608 29.8612 44.4743 29.6768 44.4833L30.8597 43.5807C31.0441 43.5718 31.2195 43.5583 31.3904 43.5269Z" fill="#FCDE16"/>
<path d="M29.6498 43.4639L28.4668 44.3664C28.3544 44.3395 28.2374 44.3125 28.125 44.2766L29.3079 43.374C29.4249 43.41 29.5373 43.4369 29.6498 43.4639Z" fill="#FCDE16"/>
<path d="M28.395 43.0285L27.2121 43.931C27.1176 43.8861 27.0232 43.8457 26.9287 43.7963L28.1116 42.8938C28.2061 42.9432 28.3006 42.9836 28.395 43.0285Z" fill="#FCDE16"/>
<path d="M27.329 42.4446L26.1461 43.3472C26.0651 43.2933 25.9796 43.2394 25.8987 43.1855L27.0816 42.283C27.1626 42.3368 27.248 42.3907 27.329 42.4446Z" fill="#FCDE16"/>
<path d="M26.3844 41.7712L25.2015 42.6737C25.125 42.6153 25.053 42.557 24.9766 42.4941L26.1595 41.5916C26.2315 41.6544 26.3079 41.7128 26.3844 41.7712Z" fill="#FCDE16"/>
<path d="M25.5343 41.0301L24.3513 41.9327C24.2839 41.8698 24.2164 41.8025 24.1489 41.7351L25.3319 40.8325C25.3993 40.8999 25.4668 40.9628 25.5343 41.0301Z" fill="#FCDE16"/>
<path d="M24.7563 40.2264L23.5733 41.129C23.5104 41.0616 23.4519 40.9898 23.3889 40.9179L24.5718 40.0154C24.6303 40.0872 24.6933 40.1591 24.7563 40.2264Z" fill="#FCDE16"/>
<path d="M24.0544 39.3688L22.8715 40.2714C22.813 40.195 22.7591 40.1232 22.7051 40.0468L23.888 39.1443C23.942 39.2206 23.996 39.2925 24.0544 39.3688Z" fill="#FCDE16"/>
<path d="M23.4202 38.4618L22.2373 39.3644C22.1878 39.2836 22.1383 39.2072 22.0889 39.1264L23.2718 38.2239C23.3213 38.3047 23.3708 38.381 23.4202 38.4618Z" fill="#FCDE16"/>
<path d="M22.8537 37.4963L21.6707 38.3989C21.6257 38.3136 21.5808 38.2327 21.5403 38.1474L22.7232 37.2449C22.7637 37.3302 22.8087 37.411 22.8537 37.4963Z" fill="#FCDE16"/>
<path d="M22.3678 36.4725L21.1849 37.375C21.1489 37.2852 21.1084 37.1954 21.0769 37.1056L22.2598 36.2031C22.2958 36.2929 22.3318 36.3827 22.3678 36.4725Z" fill="#FCDE16"/>
<path d="M21.9719 35.3814L20.789 36.2839C20.762 36.1896 20.7305 36.0908 20.708 35.9966L21.8909 35.094C21.9179 35.1883 21.9449 35.2871 21.9719 35.3814Z" fill="#FCDE16"/>
<path d="M21.6932 34.1959L20.5103 35.0985C20.4923 34.9907 20.4788 34.8874 20.4653 34.7842L21.6483 33.8816C21.6618 33.9849 21.6753 34.0926 21.6932 34.1959Z" fill="#FCDE16"/>
<path d="M21.5987 32.8758L20.4158 33.7784C20.4158 33.6526 20.4248 33.5314 20.4338 33.4102L21.6167 32.5076C21.6077 32.6288 21.5987 32.7501 21.5987 32.8758Z" fill="#FCDE16"/>
<path d="M21.8822 31.2682L20.6992 32.1707C20.7757 31.9687 20.8656 31.7846 20.9691 31.6139L22.152 30.7114C22.0486 30.882 21.9586 31.0706 21.8822 31.2682Z" fill="#FCDE16"/>
<path d="M29.6272 29.2744C29.7352 29.2744 29.8207 29.1891 29.8207 29.0813V24.1599C29.8207 24.0521 29.7352 23.9668 29.6272 23.9668C29.5193 23.9668 29.4338 24.0521 29.4338 24.1599V29.0813C29.4338 29.1891 29.5193 29.2744 29.6272 29.2744Z" fill="#B3D7DD"/>
<path d="M27.8101 28.4977C27.9181 28.4977 28.0035 28.4124 28.0035 28.3046V25.5835C28.0035 25.4757 27.9181 25.3904 27.8101 25.3904C27.7022 25.3904 27.6167 25.4757 27.6167 25.5835V28.3046C27.6167 28.4124 27.7022 28.4977 27.8101 28.4977Z" fill="#B3D7DD"/>
<path d="M37.0352 27.8779L36.0862 26.6565L36.4685 26.2703C36.3695 25.3857 36.5495 24.326 37.0577 23.172C38.578 19.6965 42.4506 16.6251 45.6891 16.3332C46.1614 16.2883 46.5976 16.3107 46.989 16.3871L47.2768 16.1401L48.3113 17.2357C49.4043 18.2236 49.7326 19.9749 48.7746 22.1706C47.2543 25.6462 43.4132 28.6592 40.1747 28.9511C38.7534 29.0813 37.7144 28.6951 37.0397 27.8823L37.0352 27.8779Z" fill="#FCDE16"/>
<g style="mix-blend-mode:multiply">
<path d="M37.0352 27.8779L36.0862 26.6565L36.4685 26.2703C36.3695 25.3857 36.5495 24.326 37.0577 23.172C38.578 19.6965 42.4506 16.6251 45.6891 16.3332C46.1614 16.2883 46.5976 16.3107 46.989 16.3871L47.2768 16.1401L48.3113 17.2357C49.4043 18.2236 49.7326 19.9749 48.7746 22.1706C47.2543 25.6462 43.4132 28.6592 40.1747 28.9511C38.7534 29.0813 37.7369 28.7086 37.0397 27.8824L37.0352 27.8779Z" fill="#DCC99E"/>
</g>
<path d="M44.8044 24.7496C47.8531 21.8431 48.9616 18.062 47.2803 16.3044C45.599 14.5467 41.7646 15.4781 38.7159 18.3846C35.6672 21.2911 34.5587 25.0721 36.24 26.8297C37.9213 28.5874 41.7557 27.6561 44.8044 24.7496Z" fill="#FCDE16"/>
<path d="M44.7533 24.5511C47.802 21.6446 48.9105 17.8636 47.2293 16.1059C45.548 14.3483 41.7136 15.2796 38.6649 18.1861C35.6162 21.0926 34.5077 24.8736 36.189 26.6313C37.8703 28.3889 41.7047 27.4576 44.7533 24.5511Z" fill="#FCDE16"/>
<g style="mix-blend-mode:multiply">
<path d="M35.8074 22.3728L37.2917 22.1214C36.8779 23.2574 36.8734 24.3216 37.3771 25.067C38.4116 26.5848 41.1913 26.1627 43.5841 24.124C44.8076 23.0778 45.6981 21.8115 46.1299 20.6216L47.6142 20.3701C46.3908 23.7199 42.7565 26.8901 39.4956 27.4424C36.2347 27.9947 34.584 25.7271 35.8119 22.3773L35.8074 22.3728Z" fill="#EEE5D1"/>
</g>
<g style="mix-blend-mode:multiply">
<path d="M43.9892 23.7524C46.2726 21.5755 47.1028 18.7436 45.8436 17.4271C44.5843 16.1107 41.7125 16.8082 39.4291 18.9851C37.1457 21.162 36.3155 23.9939 37.5747 25.3103C38.834 26.6268 41.7058 25.9292 43.9892 23.7524Z" fill="#DCC99E"/>
</g>
<path d="M42.6889 22.4222C42.8463 22.1932 42.9048 21.9956 42.8643 21.834C42.8238 21.6723 42.7294 21.5421 42.5809 21.4478C42.428 21.349 42.2256 21.2502 41.9647 21.1469L42.7698 19.957C43.1252 20.0513 43.395 20.2309 43.575 20.4958L44.2226 20.0199C44.1417 19.8807 44.0157 19.7594 43.8358 19.6517C43.6559 19.5439 43.4445 19.4586 43.2016 19.4002L43.6109 18.7985L42.9183 18.7087L42.5045 19.3194C42.1986 19.3104 41.9018 19.3463 41.6094 19.4226C41.317 19.5035 41.0562 19.6157 40.8223 19.7594C40.5884 19.9076 40.4085 20.0782 40.2735 20.2758C40.1116 20.5138 40.0531 20.7159 40.0936 20.882C40.1341 21.0481 40.2331 21.1829 40.3905 21.2861C40.5479 21.3894 40.7593 21.4927 41.0202 21.596L40.2466 22.7365C39.8058 22.6512 39.4729 22.4581 39.248 22.1573L38.6003 22.6332C38.7038 22.7904 38.8612 22.9251 39.0726 23.0374C39.2795 23.1496 39.5314 23.2349 39.8193 23.2933L39.4145 23.8905L40.1071 23.9803L40.5209 23.3697C40.9842 23.3741 41.416 23.2933 41.8073 23.1227C42.1986 22.9521 42.4955 22.723 42.6979 22.4222H42.6889ZM41.1686 20.3477C41.2631 20.204 41.4025 20.0917 41.5779 20.0109C41.7533 19.9301 41.9467 19.8851 42.1671 19.8807L41.452 20.9404C41.2901 20.8596 41.1821 20.7697 41.1236 20.6799C41.0697 20.5856 41.0832 20.4779 41.1686 20.3477ZM40.8538 22.7814L41.5194 21.798C41.6769 21.8699 41.7803 21.9507 41.8343 22.0315C41.8883 22.1124 41.8748 22.2111 41.7983 22.3279C41.7039 22.4716 41.5734 22.5794 41.4115 22.6557C41.2496 22.732 41.0652 22.7724 40.8538 22.7814Z" fill="#DF9800"/>
<path d="M41.1237 20.2039C41.2181 20.0602 41.3576 19.9479 41.533 19.8671C41.7084 19.7863 41.9018 19.7414 42.1222 19.7369L41.4071 20.7966C41.2451 20.7158 41.1372 20.626 41.0787 20.5362C41.0247 20.4419 41.0382 20.3341 41.1237 20.2039ZM40.8088 22.6376L41.4745 21.6543C41.6319 21.7261 41.7354 21.8069 41.7894 21.8878C41.8433 21.9686 41.8299 22.0674 41.7534 22.1841C41.6589 22.3278 41.5285 22.4356 41.3666 22.5119C41.2047 22.5883 41.0202 22.6287 40.8088 22.6376ZM42.644 22.2784C42.8014 22.0494 42.8599 21.8518 42.8194 21.6902C42.7789 21.5285 42.6844 21.3983 42.536 21.304C42.3831 21.2052 42.1807 21.1064 41.9198 21.0032L42.7249 19.8132C43.0803 19.9075 43.3501 20.0871 43.53 20.3521L44.1777 19.8761C44.0968 19.7369 43.9708 19.6156 43.7909 19.5079C43.611 19.4001 43.3996 19.3148 43.1567 19.2564L43.566 18.6547L42.8734 18.5649L42.4595 19.1756C42.1537 19.1666 41.8568 19.2025 41.5645 19.2789C41.2721 19.3597 41.0112 19.472 40.7774 19.6156C40.5435 19.7638 40.3636 19.9345 40.2286 20.132C40.0667 20.37 40.0082 20.5721 40.0487 20.7382C40.0892 20.9044 40.1881 21.0391 40.3456 21.1424C40.503 21.2456 40.7144 21.3489 40.9753 21.4522L40.2016 22.5927C39.7608 22.5074 39.428 22.3143 39.2031 22.0135L38.5554 22.4895C38.6589 22.6466 38.8163 22.7813 39.0277 22.8936C39.2346 23.0059 39.4865 23.0912 39.7743 23.1495L39.3695 23.7468L40.0622 23.8366L40.476 23.2259C40.9393 23.2304 41.3711 23.1495 41.7624 22.9789C42.1537 22.8083 42.4506 22.5793 42.653 22.2784H42.644Z" fill="#FFDE56"/>
<g style="mix-blend-mode:multiply">
<path d="M37.1521 22.5435C36.6843 24.5507 37.7188 25.9292 39.7564 25.7451C42.1177 25.5341 44.9289 23.3024 46.0354 20.7698C46.1523 20.4959 46.2468 20.2355 46.3187 19.9795C46.2468 20.2983 46.1343 20.6351 45.9814 20.9809C44.8749 23.5179 42.0593 25.7451 39.7024 25.9562C37.5974 26.1448 36.5629 24.6675 37.1521 22.5435Z" fill="#DCC99E"/>
</g>
<g style="mix-blend-mode:multiply">
<path d="M43.6651 17.0786C41.3083 17.2941 38.4971 19.5213 37.3862 22.0539C37.2107 22.449 37.0893 22.8307 37.0173 23.1899C37.0758 22.7454 37.2107 22.2604 37.4356 21.7485C38.5421 19.2115 41.3578 16.9843 43.7146 16.7732C45.7252 16.5936 46.7597 17.9317 46.3324 19.903C46.5977 18.0979 45.5677 16.9035 43.6651 17.0786Z" fill="#DCC99E"/>
</g>
<path d="M36.9858 23.7153C37.0082 25.1837 38.0068 26.1087 39.7025 25.956C42.0638 25.745 44.875 23.5133 45.9814 20.9807C46.2513 20.361 46.3952 19.7863 46.4222 19.2654C46.4312 19.8447 46.2873 20.5137 45.9724 21.2322C44.866 23.7692 42.0503 25.9964 39.6935 26.2075C37.9078 26.3691 36.8958 25.3319 36.9858 23.7198V23.7153Z" fill="#FCDE16"/>
<path d="M48.2078 17.6221L49.1838 18.6414C49.2288 18.7986 49.2648 18.9647 49.2872 19.1354L48.3112 18.116C48.2842 17.9454 48.2527 17.7793 48.2078 17.6221Z" fill="#FCDE16"/>
<path d="M48.3293 19.2654L49.3053 20.2847C49.2918 20.3925 49.2783 20.5047 49.2558 20.617L48.2798 19.5977C48.2978 19.4854 48.3158 19.3732 48.3293 19.2654Z" fill="#FCDE16"/>
<path d="M48.046 20.4912L49.022 21.5105C48.9905 21.6048 48.959 21.6946 48.9231 21.7889L47.947 20.7696C47.983 20.6753 48.0145 20.581 48.046 20.4912Z" fill="#FCDE16"/>
<path d="M47.6053 21.551L48.5812 22.5703C48.5407 22.6556 48.5003 22.7364 48.4553 22.8218L47.4792 21.8024C47.5242 21.7216 47.5648 21.6363 47.6053 21.551Z" fill="#FCDE16"/>
<path d="M47.0698 22.5076L48.0458 23.5269C47.9964 23.6033 47.9514 23.6796 47.8974 23.7559L46.9214 22.7366C46.9709 22.6603 47.0203 22.5839 47.0698 22.5076Z" fill="#FCDE16"/>
<path d="M46.4582 23.3877L47.4342 24.407C47.3802 24.4789 47.3263 24.5462 47.2678 24.6181L46.2917 23.5988C46.3457 23.5269 46.4042 23.4596 46.4582 23.3877Z" fill="#FCDE16"/>
<path d="M45.779 24.2004L46.7551 25.2197C46.6966 25.287 46.6336 25.3499 46.5752 25.4128L45.5991 24.3935C45.6576 24.3306 45.7206 24.2632 45.779 24.2004Z" fill="#FCDE16"/>
<path d="M45.0459 24.9502L46.022 25.9695C45.959 26.0278 45.8915 26.0907 45.8286 26.1491L44.8525 25.1298C44.92 25.0714 44.983 25.013 45.0459 24.9502Z" fill="#FCDE16"/>
<path d="M44.2496 25.6418L45.2257 26.6611C45.1582 26.715 45.0862 26.7734 45.0188 26.8272L44.0427 25.8079C44.1147 25.754 44.1822 25.7002 44.2496 25.6418Z" fill="#FCDE16"/>
<path d="M43.3997 26.2705L44.3757 27.2898C44.2993 27.3392 44.2273 27.3886 44.1508 27.438L43.1748 26.4187C43.2513 26.3693 43.3232 26.3199 43.3997 26.2705Z" fill="#FCDE16"/>
<path d="M42.4865 26.8318L43.4626 27.8511C43.3816 27.896 43.3006 27.9409 43.2197 27.9814L42.2437 26.962C42.3246 26.9216 42.4056 26.8767 42.4865 26.8318Z" fill="#FCDE16"/>
<path d="M41.4927 27.3167L42.4687 28.3359C42.3787 28.3718 42.2933 28.4077 42.2033 28.4436L41.2273 27.4244C41.3173 27.3885 41.4027 27.3526 41.4927 27.3167Z" fill="#FCDE16"/>
<path d="M40.4086 27.6985L41.3846 28.7178C41.2857 28.7447 41.1867 28.7717 41.0922 28.7941L40.1162 27.7748C40.2152 27.7523 40.3141 27.7254 40.4086 27.6985Z" fill="#FCDE16"/>
<path d="M39.1718 27.9275L40.1478 28.9468C40.0309 28.9558 39.9139 28.9647 39.8015 28.9647L38.8254 27.9454C38.9379 27.9454 39.0548 27.9364 39.1718 27.9275Z" fill="#FCDE16"/>
<path d="M37.6245 27.8287L38.6006 28.848C38.4027 28.7986 38.2182 28.7312 38.0473 28.6504L37.0713 27.6311C37.2467 27.7119 37.4311 27.7793 37.6245 27.8287Z" fill="#FCDE16"/>
<path d="M43.0982 13.8141C43.2017 13.8141 43.2826 13.7333 43.2826 13.63V0.742694C43.2826 0.639394 43.2017 0.558594 43.0982 0.558594C42.9948 0.558594 42.9138 0.639394 42.9138 0.742694V13.63C42.9138 13.7333 42.9948 13.8141 43.0982 13.8141Z" fill="#B3D7DD"/>
<path d="M40.764 14.4294C40.8675 14.4294 40.9484 14.3485 40.9484 14.2453V3.56716C40.9484 3.46386 40.8675 3.38306 40.764 3.38306C40.6605 3.38306 40.5796 3.46386 40.5796 3.56716V14.2453C40.5796 14.3485 40.6605 14.4294 40.764 14.4294Z" fill="#B3D7DD"/>
<path d="M45.3158 13.693C45.4192 13.693 45.5002 13.6121 45.5002 13.5089V10.0738C45.5002 9.97055 45.4192 9.88965 45.3158 9.88965C45.2123 9.88965 45.1313 9.97055 45.1313 10.0738V13.5089C45.1313 13.6121 45.2123 13.693 45.3158 13.693Z" fill="#B3D7DD"/>
</g>
<defs>
<clipPath id="clip0_622_5369">
<rect width="217" height="71" fill="white"/>
</clipPath>
</defs>
</svg>
